<svg id="Layer_1" data-name="Layer 1" xmlns="http://www.w3.org/2000/svg" viewBox="0 0 120 44.36"><defs><style>.cls-1{fill:#00529e;}.cls-2{fill:#ed1c24;}</style></defs><title>solace logo</title><path class="cls-1" d="M17.86,25.05a4.66,4.66,0,0,1-.74,2.58A4.89,4.89,0,0,1,15,29.42a8.15,8.15,0,0,1-3.38.65,7.58,7.58,0,0,1-3.86-.89A5.11,5.11,0,0,1,6,27.48a3.83,3.83,0,0,1-.67-2.06A1.4,1.4,0,0,1,6.72,24a1.2,1.2,0,0,1,.86.33,2.33,2.33,0,0,1,.6,1,6.69,6.69,0,0,0,.65,1.26,2.74,2.74,0,0,0,1,.84,3.65,3.65,0,0,0,1.67.33,3.82,3.82,0,0,0,2.32-.67,2,2,0,0,0,.89-1.65,1.74,1.74,0,0,0-.48-1.28A3.08,3.08,0,0,0,13,23.37c-.51-.17-1.19-.36-2-.55a14.85,14.85,0,0,1-2.85-.94,4.55,4.55,0,0,1-1.82-1.45,3.79,3.79,0,0,1-.68-2.29,4,4,0,0,1,.71-2.32,4.52,4.52,0,0,1,2.06-1.56,8.33,8.33,0,0,1,3.18-.55,7.89,7.89,0,0,1,2.52.36,5.78,5.78,0,0,1,1.76,1,3.88,3.88,0,0,1,1,1.26,2.87,2.87,0,0,1,.33,1.28,1.49,1.49,0,0,1-.41,1,1.27,1.27,0,0,1-1,.46,1.17,1.17,0,0,1-.83-.27,3.71,3.71,0,0,1-.62-.9,4.07,4.07,0,0,0-1-1.4,3,3,0,0,0-1.94-.5,3.38,3.38,0,0,0-2,.54,1.59,1.59,0,0,0-.76,1.31,1.34,1.34,0,0,0,.26.82,2.24,2.24,0,0,0,.71.6,5.64,5.64,0,0,0,.92.39c.31.09.82.23,1.53.41a22.26,22.26,0,0,1,2.42.69,7.42,7.42,0,0,1,1.85.91A3.8,3.8,0,0,1,17.43,23,4.28,4.28,0,0,1,17.86,25.05Z"/><path class="cls-1" d="M30.27,24.08a7,7,0,0,1-.41,2.43,5.37,5.37,0,0,1-1.19,1.91,5.11,5.11,0,0,1-1.85,1.22,6.46,6.46,0,0,1-2.43.43A6.59,6.59,0,0,1,22,29.64a5.3,5.3,0,0,1-3-3.14,6.94,6.94,0,0,1-.41-2.42A7.11,7.11,0,0,1,19,21.63a5.5,5.5,0,0,1,1.18-1.9A5.22,5.22,0,0,1,22,18.52a6.46,6.46,0,0,1,2.41-.43,6.74,6.74,0,0,1,2.43.43,5.3,5.3,0,0,1,1.86,1.23,5.42,5.42,0,0,1,1.19,1.9A7,7,0,0,1,30.27,24.08Zm-3,0a4.38,4.38,0,0,0-.79-2.8,2.58,2.58,0,0,0-2.13-1,2.64,2.64,0,0,0-1.52.45,2.79,2.79,0,0,0-1,1.32,5.31,5.31,0,0,0-.36,2,5.44,5.44,0,0,0,.35,2,2.94,2.94,0,0,0,1,1.32,2.67,2.67,0,0,0,1.54.46,2.58,2.58,0,0,0,2.13-1A4.39,4.39,0,0,0,27.31,24.08Z"/><path class="cls-1" d="M31.46,28.28V15.5a1.92,1.92,0,0,1,.4-1.33,1.3,1.3,0,0,1,1.06-.46,1.41,1.41,0,0,1,1.08.45,2,2,0,0,1,.41,1.34V28.28A1.91,1.91,0,0,1,34,29.62a1.37,1.37,0,0,1-1.07.45,1.33,1.33,0,0,1-1.05-.47A2,2,0,0,1,31.46,28.28Z"/><path class="cls-1" d="M43.77,28.41a9.21,9.21,0,0,1-2.07,1.24,5.7,5.7,0,0,1-2.24.42,4.23,4.23,0,0,1-2-.45,3.29,3.29,0,0,1-1.32-1.21,3.18,3.18,0,0,1-.46-1.67,3,3,0,0,1,.76-2.06,3.9,3.9,0,0,1,2.11-1.14L40,23.25c.74-.15,1.37-.29,1.9-.42s1.1-.27,1.72-.45a3,3,0,0,0-.47-1.71,2.06,2.06,0,0,0-1.72-.55,3.71,3.71,0,0,0-1.69.31,2.89,2.89,0,0,0-1,.94c-.27.42-.46.69-.57.83a1,1,0,0,1-.72.2,1.25,1.25,0,0,1-.85-.32,1,1,0,0,1-.36-.82,2.49,2.49,0,0,1,.55-1.51,3.87,3.87,0,0,1,1.71-1.2,7.68,7.68,0,0,1,2.9-.48,8.14,8.14,0,0,1,3.06.46A2.87,2.87,0,0,1,46,20a6.44,6.44,0,0,1,.45,2.63v1.76c0,.48,0,1,0,1.61a5.73,5.73,0,0,0,.28,1.73A5.58,5.58,0,0,1,47,28.87a1.07,1.07,0,0,1-.42.82,1.45,1.45,0,0,1-1,.38,1.27,1.27,0,0,1-.89-.43A6.2,6.2,0,0,1,43.77,28.41Zm-.2-4.27a15,15,0,0,1-1.88.51c-.82.17-1.39.3-1.71.38a2.46,2.46,0,0,0-.91.49,1.27,1.27,0,0,0-.43,1,1.51,1.51,0,0,0,.51,1.14,1.89,1.89,0,0,0,1.33.47,3.39,3.39,0,0,0,1.61-.39,2.53,2.53,0,0,0,1.08-1,4.49,4.49,0,0,0,.4-2.21Z"/><path class="cls-1" d="M58.89,26.42a2.55,2.55,0,0,1-.33,1.18,4.31,4.31,0,0,1-1,1.19,5.18,5.18,0,0,1-1.7.91,7.27,7.27,0,0,1-2.31.35,5.6,5.6,0,0,1-4.26-1.6,5.85,5.85,0,0,1-1.54-4.26A7,7,0,0,1,48.46,21a5.05,5.05,0,0,1,2-2.15,6.29,6.29,0,0,1,3.18-.76,6.07,6.07,0,0,1,2.09.34,5.4,5.4,0,0,1,1.62.86,4.27,4.27,0,0,1,1,1.13,2.24,2.24,0,0,1,.35,1.11,1.2,1.2,0,0,1-.4.9,1.36,1.36,0,0,1-1,.36,1,1,0,0,1-.61-.18,3.14,3.14,0,0,1-.55-.61,4.39,4.39,0,0,0-1.12-1.23,2.77,2.77,0,0,0-3.6.61,4.42,4.42,0,0,0-.8,2.78,5.24,5.24,0,0,0,.21,1.53,3.32,3.32,0,0,0,.59,1.19,2.6,2.6,0,0,0,.94.74,2.82,2.82,0,0,0,1.21.26,2.75,2.75,0,0,0,1.51-.41,3.68,3.68,0,0,0,1.12-1.26,2.72,2.72,0,0,1,.58-.77,1.09,1.09,0,0,1,.77-.28,1.11,1.11,0,0,1,.89.41A1.29,1.29,0,0,1,58.89,26.42Z"/><path class="cls-1" d="M68.55,24.8H62.79a4,4,0,0,0,.4,1.77,2.76,2.76,0,0,0,1,1.16,2.82,2.82,0,0,0,1.44.38,3.74,3.74,0,0,0,1-.12,2.9,2.9,0,0,0,.84-.39,6.21,6.21,0,0,0,.76-.56l.89-.82a1,1,0,0,1,.65-.2,1,1,0,0,1,.73.25.87.87,0,0,1,.28.7,1.85,1.85,0,0,1-.31.93,3.71,3.71,0,0,1-.94,1,5.15,5.15,0,0,1-1.59.81,6.7,6.7,0,0,1-2.2.33,5.87,5.87,0,0,1-4.41-1.62,6,6,0,0,1-1.57-4.39,7.27,7.27,0,0,1,.39-2.42,5.25,5.25,0,0,1,1.13-1.92,5,5,0,0,1,1.83-1.22,6.51,6.51,0,0,1,2.42-.43,5.68,5.68,0,0,1,3,.73,4.77,4.77,0,0,1,1.85,1.88A5,5,0,0,1,71,23a1.48,1.48,0,0,1-.64,1.44A3.94,3.94,0,0,1,68.55,24.8Zm-5.76-1.67h5.34a3.57,3.57,0,0,0-.82-2.26,2.43,2.43,0,0,0-1.86-.75,2.34,2.34,0,0,0-1.8.76A3.74,3.74,0,0,0,62.79,23.13Z"/><path class="cls-2" d="M16,36.29V33.17l-1.54,2.6h-.29l-1.54-2.58v3.1H12V32h.5l1.79,3,1.76-3h.5v4.28Z"/><path class="cls-2" d="M20.53,34.86H17.9a1,1,0,0,0,.38.69,1.23,1.23,0,0,0,.79.26,1.21,1.21,0,0,0,.94-.39l.32.38a1.42,1.42,0,0,1-.54.39,2.09,2.09,0,0,1-1.64-.08,1.53,1.53,0,0,1-.62-.59,1.73,1.73,0,0,1-.22-.85,1.7,1.7,0,0,1,.21-.85,1.52,1.52,0,0,1,.59-.59,1.75,1.75,0,0,1,1.66,0,1.47,1.47,0,0,1,.57.59,1.85,1.85,0,0,1,.2.86A1.21,1.21,0,0,1,20.53,34.86Zm-2.3-1.09a1,1,0,0,0-.33.67H20a1.06,1.06,0,0,0-1.75-.67Z"/><path class="cls-2" d="M23.91,33.37a1.42,1.42,0,0,1,.36,1.05v1.87h-.59v-1.8a1,1,0,0,0-.22-.71.85.85,0,0,0-.65-.24,1,1,0,0,0-.75.28,1.05,1.05,0,0,0-.28.8v1.67H21.2V33.05h.56v.48a1.21,1.21,0,0,1,.48-.38,1.67,1.67,0,0,1,.69-.13A1.34,1.34,0,0,1,23.91,33.37Z"/><path class="cls-2" d="M27,36.1a.74.74,0,0,1-.32.16,1.23,1.23,0,0,1-.39.06,1.08,1.08,0,0,1-.76-.26,1,1,0,0,1-.26-.75V33.53h-.56v-.48h.56v-.71h.58v.71h.93v.48h-.93v1.75a.63.63,0,0,0,.13.41.52.52,0,0,0,.38.14.68.68,0,0,0,.46-.16Z"/><path class="cls-2" d="M29.78,33.35a1.25,1.25,0,0,1,.36,1v2h-.56v-.43a1,1,0,0,1-.42.34,1.56,1.56,0,0,1-.64.12,1.39,1.39,0,0,1-.87-.26.85.85,0,0,1-.33-.69.84.84,0,0,1,.31-.69,1.56,1.56,0,0,1,1-.26h.93v-.11a.76.76,0,0,0-.22-.59,1,1,0,0,0-.65-.2,1.54,1.54,0,0,0-.56.1,1.44,1.44,0,0,0-.46.25l-.25-.44a1.89,1.89,0,0,1,.6-.31,2.55,2.55,0,0,1,.74-.1A1.47,1.47,0,0,1,29.78,33.35Zm-.58,2.37a.85.85,0,0,0,.35-.42v-.46h-.9c-.5,0-.75.17-.75.5a.44.44,0,0,0,.19.39.9.9,0,0,0,.53.14A1.11,1.11,0,0,0,29.2,35.72Z"/><path class="cls-2" d="M31.07,31.75h.58v4.54h-.58Z"/><path class="cls-2" d="M37.86,32v4.28h-.61V34.38H34.8v1.91h-.61V32h.61v1.84h2.45V32Z"/><path class="cls-2" d="M41.82,34.86H39.19a1,1,0,0,0,.38.69,1.23,1.23,0,0,0,.79.26,1.21,1.21,0,0,0,.94-.39l.32.38a1.42,1.42,0,0,1-.54.39,2.09,2.09,0,0,1-1.64-.08,1.53,1.53,0,0,1-.62-.59,1.73,1.73,0,0,1-.22-.85,1.61,1.61,0,0,1,.22-.85,1.43,1.43,0,0,1,.58-.59,1.75,1.75,0,0,1,1.66,0,1.47,1.47,0,0,1,.57.59,1.85,1.85,0,0,1,.2.86A1.21,1.21,0,0,1,41.82,34.86Zm-2.3-1.09a1,1,0,0,0-.33.67h2.08a1.06,1.06,0,0,0-1.75-.67Z"/><path class="cls-2" d="M44.6,33.35a1.25,1.25,0,0,1,.36,1v2h-.55v-.43a1,1,0,0,1-.42.34,1.6,1.6,0,0,1-.65.12,1.39,1.39,0,0,1-.87-.26.9.9,0,0,1,0-1.38,1.53,1.53,0,0,1,1-.26h.93v-.11a.79.79,0,0,0-.22-.59,1,1,0,0,0-.65-.2,1.63,1.63,0,0,0-.57.1,1.56,1.56,0,0,0-.46.25l-.24-.44a1.74,1.74,0,0,1,.59-.31,2.59,2.59,0,0,1,.74-.1A1.45,1.45,0,0,1,44.6,33.35ZM44,35.72a.93.93,0,0,0,.36-.42v-.46h-.91c-.5,0-.75.17-.75.5a.47.47,0,0,0,.19.39.92.92,0,0,0,.53.14A1.09,1.09,0,0,0,44,35.72Z"/><path class="cls-2" d="M45.89,31.75h.59v4.54h-.59Z"/><path class="cls-2" d="M49.34,36.1a.8.8,0,0,1-.32.16,1.32,1.32,0,0,1-.39.06,1.06,1.06,0,0,1-.76-.26,1,1,0,0,1-.27-.75V33.53h-.55v-.48h.55v-.71h.59v.71h.93v.48h-.93v1.75a.58.58,0,0,0,.13.41.51.51,0,0,0,.38.14.64.64,0,0,0,.45-.16Z"/><path class="cls-2" d="M52.6,33.37A1.42,1.42,0,0,1,53,34.42v1.87h-.58v-1.8a1,1,0,0,0-.23-.71.85.85,0,0,0-.65-.24,1,1,0,0,0-.75.28,1.09,1.09,0,0,0-.27.8v1.67h-.59V31.75h.59V33.5a1.27,1.27,0,0,1,.48-.36,1.69,1.69,0,0,1,.66-.12A1.32,1.32,0,0,1,52.6,33.37Z"/><path class="cls-2" d="M56.22,36.05a2,2,0,0,1-.81-.78,2.13,2.13,0,0,1-.29-1.12A2.16,2.16,0,0,1,55.41,33a2.1,2.1,0,0,1,.81-.78A2.4,2.4,0,0,1,57.38,32a2.29,2.29,0,0,1,.92.17,1.85,1.85,0,0,1,.71.49l-.4.39a1.58,1.58,0,0,0-1.2-.51,1.64,1.64,0,0,0-.86.22,1.57,1.57,0,0,0-.61.59,1.78,1.78,0,0,0,0,1.68,1.65,1.65,0,0,0,.61.59,1.74,1.74,0,0,0,.86.21,1.59,1.59,0,0,0,1.2-.51l.4.38a1.87,1.87,0,0,1-.71.5,2.32,2.32,0,0,1-.92.17A2.34,2.34,0,0,1,56.22,36.05Z"/><path class="cls-2" d="M59.64,31.75h.59v4.54h-.59Z"/><path class="cls-2" d="M61.19,32.31a.37.37,0,0,1-.11-.27.4.4,0,0,1,.11-.27.42.42,0,0,1,.29-.11.36.36,0,0,1,.28.11.34.34,0,0,1,.12.26.38.38,0,0,1-.12.28.39.39,0,0,1-.28.11A.38.38,0,0,1,61.19,32.31Zm0,.74h.59v3.24h-.59Z"/><path class="cls-2" d="M65.44,33.37a1.43,1.43,0,0,1,.37,1.05v1.87h-.59v-1.8a1,1,0,0,0-.23-.71.84.84,0,0,0-.65-.24,1,1,0,0,0-.75.28,1.09,1.09,0,0,0-.27.8v1.67h-.59V33.05h.56v.48a1.21,1.21,0,0,1,.48-.38,1.67,1.67,0,0,1,.69-.13A1.32,1.32,0,0,1,65.44,33.37Z"/><path class="cls-2" d="M66.74,32.31a.37.37,0,0,1-.11-.27.4.4,0,0,1,.11-.27.42.42,0,0,1,.29-.11.36.36,0,0,1,.28.11.34.34,0,0,1,.12.26.38.38,0,0,1-.12.28.39.39,0,0,1-.28.11A.38.38,0,0,1,66.74,32.31Zm0,.74h.58v3.24h-.58Z"/><path class="cls-2" d="M68.81,36.11a1.57,1.57,0,0,1-.61-.59,1.77,1.77,0,0,1,0-1.71,1.55,1.55,0,0,1,.61-.58,1.82,1.82,0,0,1,.88-.21,1.67,1.67,0,0,1,.79.17,1.21,1.21,0,0,1,.53.52l-.44.28a1.06,1.06,0,0,0-.38-.35,1.18,1.18,0,0,0-.5-.11,1.2,1.2,0,0,0-.57.14,1,1,0,0,0-.4.4,1.16,1.16,0,0,0-.14.6,1.21,1.21,0,0,0,.14.6,1,1,0,0,0,.4.4,1.2,1.2,0,0,0,.57.14,1.06,1.06,0,0,0,.5-.12.91.91,0,0,0,.38-.35l.44.29a1.24,1.24,0,0,1-.53.51,1.67,1.67,0,0,1-.79.18A1.82,1.82,0,0,1,68.81,36.11Z"/><path class="cls-2" d="M110,3a11.43,11.43,0,0,1,2.17,6.31c0,3.52-.74,4.79-.41,6.14a10,10,0,0,0,2.41,3.85c.7.66,2.58,1.68,1.27,2.87s-2.66,1.8-2.21,2.58.66,1.76-.28,2.38-.74,1.06-.29,1.39.57,1.23-.53,1.6-.74,1.72-.66,2.58-1.11,3.11-6.1,2c0,0-4.84-1.31-5.66.73a17.07,17.07,0,0,0-1.51,4.63,3.93,3.93,0,0,1-.86,2,3.94,3.94,0,0,1-1.48-3.51V26.19s9.3.4,11.51-7.21a12.9,12.9,0,0,0,1.07-5.75c-.08-3.51.08-6.71.08-6.71S108.31,5.13,110,3Z"/><path class="cls-1" d="M77,3.94a3,3,0,0,1,1.84,2.7c0,2,0,8,.25,9s.86,10,12.37,10.44V38.31s.33,4.18-3.57,5.08a3.75,3.75,0,0,0,.5-3.4c-.74-1.76-3.11-1.64-4.16-1.52a10.56,10.56,0,0,1-4.36-.24A3,3,0,0,1,78,34.54c.49-1.47.49-2-.16-2.62a1.42,1.42,0,0,1-.45-1.64c.16-.29-.21-.61-.74-.82S75,28.6,75.33,27.82s1-1.59-.08-2.13-2.54-.24-2.42-1.23a23.88,23.88,0,0,1,1.76-4.79,9.94,9.94,0,0,0,1-3.56c0-1-.46-1.76-.33-2.87A41.31,41.31,0,0,1,75.9,8C76.23,7,77,3.94,77,3.94Z"/><path class="cls-2" d="M107.81,2.88H99s-3.28.08-3.12,5.4V23.93A7.41,7.41,0,0,0,103.64,17l.36-7S104.45,4.27,107.81,2.88Z"/><path class="cls-1" d="M79.51,2.88h8.85s3.27.08,3.11,5.4V23.93A7.4,7.4,0,0,1,83.69,17l-.37-7S82.87,4.27,79.51,2.88Z"/><path class="cls-2" d="M85.07,6.09a1.08,1.08,0,0,0-.28-1.54A4,4,0,0,0,82.37,4a3.11,3.11,0,0,1,.47,1,2.52,2.52,0,0,0,.49.93,1.16,1.16,0,0,0,1.52.44,4.67,4.67,0,0,0-2-2.17A4.37,4.37,0,0,1,85.07,6.09Z"/><path class="cls-2" d="M86.38,10.5a1.33,1.33,0,0,0,.26-1.9A4.9,4.9,0,0,0,84.05,7a3.84,3.84,0,0,1,.15,1.38,3.19,3.19,0,0,0,.22,1.26C85,11,86,10.72,86,10.72a5.7,5.7,0,0,0-1.52-3.29A5.37,5.37,0,0,1,86.38,10.5Z"/><path class="cls-2" d="M87,20.64A1.12,1.12,0,0,0,87.26,19a4.21,4.21,0,0,0-2.21-1.38,3.28,3.28,0,0,1,.13,1.18,2.63,2.63,0,0,0,.19,1.07c.47,1.16,1.37.93,1.37.93a4.86,4.86,0,0,0-1.3-2.8A4.53,4.53,0,0,1,87,20.64Z"/><path class="cls-2" d="M88.87,22.39a.76.76,0,0,1-.14-1.09,2.78,2.78,0,0,1,1.49-.93,2.2,2.2,0,0,0-.09.79,1.66,1.66,0,0,1-.13.73c-.31.78-.92.62-.92.62A3.29,3.29,0,0,1,90,20.62,3.09,3.09,0,0,0,88.87,22.39Z"/><path class="cls-2" d="M84.79,16.33a1.79,1.79,0,0,1-.74-2.47,6.68,6.68,0,0,1,3.11-2.68,5.37,5.37,0,0,0,.09,1.87,4.33,4.33,0,0,1,0,1.72c-.45,1.91-1.92,1.77-1.92,1.77-.39-2.12,1.35-4.67,1.35-4.67A7.14,7.14,0,0,0,84.79,16.33Z"/><path class="cls-2" d="M88.88,19.27a1.85,1.85,0,0,1-1.31-2.33A6.91,6.91,0,0,1,90.1,13.5a5.54,5.54,0,0,0,.53,1.87A4.59,4.59,0,0,1,91,17.12c0,2.05-1.53,2.25-1.53,2.25-.88-2.07.29-5.05.29-5.05A7.45,7.45,0,0,0,88.88,19.27Z"/><path class="cls-2" d="M87.6,8.42a1.53,1.53,0,0,1-.68-2.11,5.76,5.76,0,0,1,2.63-2.37,4.71,4.71,0,0,0,.11,1.61,3.69,3.69,0,0,1,0,1.48c-.35,1.66-1.62,1.57-1.62,1.57-.38-1.83,1.07-4.06,1.07-4.06A6.21,6.21,0,0,0,87.6,8.42Z"/><path class="cls-2" d="M89.13,13a1.46,1.46,0,0,1-1.07-1.82,5.41,5.41,0,0,1,2-2.75,4.37,4.37,0,0,0,.44,1.47,3.61,3.61,0,0,1,.31,1.38c0,1.62-1.18,1.79-1.18,1.79-.73-1.62.16-4,.16-4A5.83,5.83,0,0,0,89.13,13Z"/><path class="cls-1" d="M101.92,6.09a1.09,1.09,0,0,1,.27-1.54,4.06,4.06,0,0,1,2.42-.6,3.33,3.33,0,0,0-.46,1,2.52,2.52,0,0,1-.49.93,1.16,1.16,0,0,1-1.52.44,4.67,4.67,0,0,1,2-2.17A4.32,4.32,0,0,0,101.92,6.09Z"/><path class="cls-1" d="M100.61,10.5a1.33,1.33,0,0,1-.26-1.9A4.9,4.9,0,0,1,102.94,7a3.84,3.84,0,0,0-.15,1.38,3.19,3.19,0,0,1-.22,1.26C102,11,101,10.72,101,10.72a5.7,5.7,0,0,1,1.52-3.29A5.3,5.3,0,0,0,100.61,10.5Z"/><path class="cls-1" d="M100,20.64A1.11,1.11,0,0,1,99.73,19a4.19,4.19,0,0,1,2.2-1.38,3.56,3.56,0,0,0-.12,1.18,2.81,2.81,0,0,1-.19,1.07c-.47,1.16-1.37.93-1.37.93a4.86,4.86,0,0,1,1.3-2.8A4.53,4.53,0,0,0,100,20.64Z"/><path class="cls-1" d="M98.11,22.39a.76.76,0,0,0,.15-1.09,2.78,2.78,0,0,0-1.49-.93,2.2,2.2,0,0,1,.09.79,1.81,1.81,0,0,0,.12.73c.32.78.93.62.93.62A3.27,3.27,0,0,0,97,20.62,3,3,0,0,1,98.11,22.39Z"/><path class="cls-1" d="M102.2,16.33a1.79,1.79,0,0,0,.73-2.47,6.67,6.67,0,0,0-3.1-2.68,5.37,5.37,0,0,1-.09,1.87,4.33,4.33,0,0,0,0,1.72c.45,1.91,1.92,1.77,1.92,1.77.39-2.12-1.35-4.67-1.35-4.67A7.14,7.14,0,0,1,102.2,16.33Z"/><path class="cls-1" d="M98.1,19.27a1.86,1.86,0,0,0,1.32-2.33,6.91,6.91,0,0,0-2.54-3.44,5.27,5.27,0,0,1-.52,1.87A4.8,4.8,0,0,0,96,17.12c0,2.05,1.53,2.25,1.53,2.25.89-2.07-.28-5.05-.28-5.05A7.41,7.41,0,0,1,98.1,19.27Z"/><path class="cls-1" d="M99.38,8.42a1.53,1.53,0,0,0,.69-2.11,5.76,5.76,0,0,0-2.63-2.37,4.71,4.71,0,0,1-.11,1.61,3.69,3.69,0,0,0,0,1.48c.35,1.66,1.62,1.57,1.62,1.57.38-1.83-1.07-4.06-1.07-4.06A6.16,6.16,0,0,1,99.38,8.42Z"/><path class="cls-1" d="M97.86,13a1.47,1.47,0,0,0,1.07-1.82,5.41,5.41,0,0,0-2-2.75,4.37,4.37,0,0,1-.44,1.47,3.61,3.61,0,0,0-.31,1.38c0,1.62,1.18,1.79,1.18,1.79.73-1.62-.16-4-.16-4A5.9,5.9,0,0,1,97.86,13Z"/></svg>