<svg id="Layer_1" data-name="Layer 1" xmlns="http://www.w3.org/2000/svg" viewBox="0 0 73.62 30"><defs><style>.cls-1{fill:#f1f2f2;}</style></defs><title>solace logo w</title><path class="cls-1" d="M13.52,15.33a2.38,2.38,0,0,1-.38,1.34,2.46,2.46,0,0,1-1.12.92,4.06,4.06,0,0,1-1.74.34,3.87,3.87,0,0,1-2-.46,2.73,2.73,0,0,1-.91-.88A2,2,0,0,1,7,15.52.69.69,0,0,1,7.23,15a.74.74,0,0,1,.54-.22.64.64,0,0,1,.44.17,1.38,1.38,0,0,1,.31.5,3,3,0,0,0,.34.65,1.28,1.28,0,0,0,.51.43,1.81,1.81,0,0,0,.86.17,2,2,0,0,0,1.2-.34,1,1,0,0,0,.46-.86.89.89,0,0,0-.25-.66,1.58,1.58,0,0,0-.64-.39c-.26-.08-.61-.18-1.05-.28a8.31,8.31,0,0,1-1.48-.48,2.45,2.45,0,0,1-.94-.76,1.94,1.94,0,0,1-.35-1.18,2,2,0,0,1,.37-1.2,2.32,2.32,0,0,1,1.06-.81,4.39,4.39,0,0,1,1.65-.28,3.92,3.92,0,0,1,1.3.19,2.81,2.81,0,0,1,.91.49,2.2,2.2,0,0,1,.53.65,1.55,1.55,0,0,1,.17.67A.77.77,0,0,1,13,12a.66.66,0,0,1-.52.24A.64.64,0,0,1,12,12.1a2.47,2.47,0,0,1-.32-.47,2,2,0,0,0-.53-.72,1.55,1.55,0,0,0-1-.26,1.72,1.72,0,0,0-1,.28.82.82,0,0,0-.39.68.68.68,0,0,0,.13.42,1.15,1.15,0,0,0,.37.31,2.76,2.76,0,0,0,.47.2l.79.21a13,13,0,0,1,1.26.36,4,4,0,0,1,.95.47,1.9,1.9,0,0,1,.61.71A2.19,2.19,0,0,1,13.52,15.33Z"/><path class="cls-1" d="M19.94,14.83a3.62,3.62,0,0,1-.21,1.26,2.79,2.79,0,0,1-.61,1,2.86,2.86,0,0,1-1,.63,3.33,3.33,0,0,1-1.26.22,3.26,3.26,0,0,1-1.24-.22,2.89,2.89,0,0,1-1-.64,2.84,2.84,0,0,1-.61-1,3.89,3.89,0,0,1,0-2.52,2.85,2.85,0,0,1,.61-1,2.53,2.53,0,0,1,1-.62,3.33,3.33,0,0,1,1.24-.22,3.4,3.4,0,0,1,1.26.22,2.65,2.65,0,0,1,1,.64,2.69,2.69,0,0,1,.62,1A3.6,3.6,0,0,1,19.94,14.83Zm-1.52,0A2.31,2.31,0,0,0,18,13.38a1.44,1.44,0,0,0-1.89-.29,1.56,1.56,0,0,0-.53.69,3.15,3.15,0,0,0,0,2.1,1.5,1.5,0,0,0,.52.68,1.32,1.32,0,0,0,.79.24A1.38,1.38,0,0,0,18,16.28,2.31,2.31,0,0,0,18.42,14.83Z"/><path class="cls-1" d="M20.56,17V10.4a1,1,0,0,1,.2-.69.69.69,0,0,1,.55-.24.74.74,0,0,1,.56.23,1,1,0,0,1,.21.7V17a1,1,0,0,1-.21.7.74.74,0,0,1-.56.23.68.68,0,0,1-.54-.24A1,1,0,0,1,20.56,17Z"/><path class="cls-1" d="M26.92,17.07a4.34,4.34,0,0,1-1.06.64,2.89,2.89,0,0,1-1.16.22,2.23,2.23,0,0,1-1-.23,1.73,1.73,0,0,1-.68-.63,1.62,1.62,0,0,1-.24-.86,1.53,1.53,0,0,1,.39-1.06,2,2,0,0,1,1.09-.6L25,14.4c.38-.07.71-.15,1-.21l.89-.24a1.52,1.52,0,0,0-.24-.88,1.07,1.07,0,0,0-.89-.28,1.79,1.79,0,0,0-.87.16,1.43,1.43,0,0,0-.5.48,4.27,4.27,0,0,1-.3.43.48.48,0,0,1-.37.1.63.63,0,0,1-.44-.16.52.52,0,0,1-.19-.42,1.27,1.27,0,0,1,.28-.78,2,2,0,0,1,.89-.63,4.06,4.06,0,0,1,1.5-.24,4.22,4.22,0,0,1,1.58.23,1.49,1.49,0,0,1,.81.75,3.28,3.28,0,0,1,.24,1.36V15c0,.25,0,.53,0,.83a3.23,3.23,0,0,0,.14.9,2.46,2.46,0,0,1,.14.6.55.55,0,0,1-.22.43.71.71,0,0,1-.5.19.66.66,0,0,1-.46-.22A3.88,3.88,0,0,1,26.92,17.07Zm-.1-2.2a9.37,9.37,0,0,1-1,.26c-.43.09-.72.15-.88.2a1.08,1.08,0,0,0-.47.25.64.64,0,0,0-.23.52.76.76,0,0,0,.27.59,1,1,0,0,0,.68.24,1.74,1.74,0,0,0,.84-.2,1.33,1.33,0,0,0,.56-.51,2.32,2.32,0,0,0,.2-1.14Z"/><path class="cls-1" d="M34.74,16a1.23,1.23,0,0,1-.17.61,2.05,2.05,0,0,1-.51.62,2.94,2.94,0,0,1-.88.47,3.74,3.74,0,0,1-1.2.18,2.94,2.94,0,0,1-2.2-.82A3.05,3.05,0,0,1,29,14.89a3.65,3.65,0,0,1,.36-1.66,2.56,2.56,0,0,1,1-1.11A3.26,3.26,0,0,1,32,11.73a3.14,3.14,0,0,1,1.08.17,2.78,2.78,0,0,1,.84.44,2.4,2.4,0,0,1,.53.59,1.14,1.14,0,0,1,.18.57.61.61,0,0,1-.21.47.71.71,0,0,1-.49.19.49.49,0,0,1-.32-.1,1.82,1.82,0,0,1-.28-.31,2.16,2.16,0,0,0-.58-.64,1.44,1.44,0,0,0-1.86.31,2.29,2.29,0,0,0-.41,1.45,2.85,2.85,0,0,0,.1.79,1.67,1.67,0,0,0,.31.61,1.18,1.18,0,0,0,.48.38,1.46,1.46,0,0,0,.63.14,1.43,1.43,0,0,0,.78-.22,1.82,1.82,0,0,0,.58-.64,1.5,1.5,0,0,1,.3-.41.61.61,0,0,1,.4-.14.59.59,0,0,1,.46.21A.68.68,0,0,1,34.74,16Z"/><path class="cls-1" d="M39.74,15.21h-3a2.18,2.18,0,0,0,.21.91,1.39,1.39,0,0,0,1.29.8,2,2,0,0,0,.5-.06,1.56,1.56,0,0,0,.43-.21,2,2,0,0,0,.39-.29c.12-.1.28-.24.47-.42a.48.48,0,0,1,.33-.1.52.52,0,0,1,.38.13.43.43,0,0,1,.15.36,1,1,0,0,1-.16.48,1.85,1.85,0,0,1-.49.53,2.74,2.74,0,0,1-.82.42,3.6,3.6,0,0,1-1.14.17A3,3,0,0,1,36,17.09a3.11,3.11,0,0,1-.81-2.27,3.6,3.6,0,0,1,.2-1.25,2.7,2.7,0,0,1,.58-1,2.4,2.4,0,0,1,.95-.63,3.35,3.35,0,0,1,1.25-.22,2.94,2.94,0,0,1,1.53.37,2.44,2.44,0,0,1,1,1A2.55,2.55,0,0,1,41,14.29a.78.78,0,0,1-.33.75A2.11,2.11,0,0,1,39.74,15.21Zm-3-.87h2.76a1.78,1.78,0,0,0-.42-1.17,1.24,1.24,0,0,0-1-.38,1.21,1.21,0,0,0-.93.39A1.9,1.9,0,0,0,36.76,14.34Z"/><path class="cls-1" d="M12.56,21.15V19.53l-.8,1.35h-.14l-.8-1.34v1.61h-.3V18.93h.26l.92,1.56.91-1.56h.26v2.22Z"/><path class="cls-1" d="M14.91,20.41H13.55a.53.53,0,0,0,.19.36.63.63,0,0,0,.41.13.65.65,0,0,0,.49-.2l.17.19a.78.78,0,0,1-.29.21,1.11,1.11,0,0,1-.37.07,1.06,1.06,0,0,1-.48-.11.87.87,0,0,1-.43-.75.93.93,0,0,1,.11-.44,1,1,0,0,1,.3-.31.88.88,0,0,1,.43-.1.83.83,0,0,1,.43.1.81.81,0,0,1,.3.31.93.93,0,0,1,.1.45Zm-1.19-.57a.51.51,0,0,0-.17.35h1.07a.49.49,0,0,0-.17-.34.53.53,0,0,0-.37-.14A.57.57,0,0,0,13.72,19.84Z"/><path class="cls-1" d="M16.65,19.64a.7.7,0,0,1,.19.54v1h-.3v-.93a.5.5,0,0,0-.12-.37.45.45,0,0,0-.33-.12.53.53,0,0,0-.39.14.54.54,0,0,0-.14.41v.87h-.31V19.47h.29v.25a.71.71,0,0,1,.25-.2,1,1,0,0,1,.36-.06A.68.68,0,0,1,16.65,19.64Z"/><path class="cls-1" d="M18.26,21.05a.35.35,0,0,1-.16.09.69.69,0,0,1-.2,0,.53.53,0,0,1-.39-.14.49.49,0,0,1-.14-.39v-.92h-.29v-.25h.29V19.1h.3v.37h.48v.25h-.48v.91a.28.28,0,0,0,.07.21.27.27,0,0,0,.19.07.38.38,0,0,0,.24-.08Z"/><path class="cls-1" d="M19.69,19.63a.65.65,0,0,1,.19.5v1h-.29v-.23a.44.44,0,0,1-.22.18.81.81,0,0,1-.33.07.69.69,0,0,1-.45-.14.45.45,0,0,1-.17-.36.42.42,0,0,1,.16-.35.8.8,0,0,1,.51-.14h.48v-.06a.37.37,0,0,0-.11-.3.49.49,0,0,0-.34-.1.77.77,0,0,0-.29.05.7.7,0,0,0-.24.13l-.12-.23a.91.91,0,0,1,.31-.16,1.17,1.17,0,0,1,.38-.05A.72.72,0,0,1,19.69,19.63Zm-.3,1.22a.4.4,0,0,0,.18-.22V20.4h-.46c-.26,0-.39.09-.39.26a.23.23,0,0,0,.1.2.41.41,0,0,0,.27.07A.48.48,0,0,0,19.39,20.85Z"/><path class="cls-1" d="M20.36,18.8h.3v2.35h-.3Z"/><path class="cls-1" d="M23.87,18.93v2.22h-.31v-1H22.29v1H22V18.93h.32v.95h1.27v-.95Z"/><path class="cls-1" d="M25.92,20.41H24.56a.53.53,0,0,0,.19.36.64.64,0,0,0,.42.13.63.63,0,0,0,.48-.2l.17.19a.78.78,0,0,1-.29.21,1.06,1.06,0,0,1-.37.07,1,1,0,0,1-.47-.11.8.8,0,0,1-.32-.31.82.82,0,0,1-.11-.44.92.92,0,0,1,.1-.44,1,1,0,0,1,.3-.31.92.92,0,0,1,.44-.1.77.77,0,0,1,.72.41.93.93,0,0,1,.1.45Zm-1.19-.57a.56.56,0,0,0-.17.35h1.07a.49.49,0,0,0-.17-.34.52.52,0,0,0-.36-.14A.57.57,0,0,0,24.73,19.84Z"/><path class="cls-1" d="M27.36,19.63a.65.65,0,0,1,.18.5v1h-.28v-.23a.49.49,0,0,1-.22.18.84.84,0,0,1-.33.07.74.74,0,0,1-.46-.14.44.44,0,0,1-.16-.36.42.42,0,0,1,.16-.35.78.78,0,0,1,.51-.14h.48v-.06a.41.41,0,0,0-.11-.3.49.49,0,0,0-.34-.1.71.71,0,0,0-.29.05.7.7,0,0,0-.24.13l-.13-.23a1,1,0,0,1,.31-.16,1.23,1.23,0,0,1,.39-.05A.74.74,0,0,1,27.36,19.63Zm-.3,1.22a.44.44,0,0,0,.18-.22V20.4h-.47c-.26,0-.38.09-.38.26a.25.25,0,0,0,.09.2.47.47,0,0,0,.28.07A.52.52,0,0,0,27.06,20.85Z"/><path class="cls-1" d="M28,18.8h.31v2.35H28Z"/><path class="cls-1" d="M29.81,21.05a.46.46,0,0,1-.17.09.64.64,0,0,1-.2,0,.49.49,0,0,1-.53-.53v-.92h-.29v-.25h.29V19.1h.3v.37h.48v.25h-.48v.91a.33.33,0,0,0,.07.21.3.3,0,0,0,.2.07.36.36,0,0,0,.23-.08Z"/><path class="cls-1" d="M31.49,19.64a.7.7,0,0,1,.19.54v1h-.3v-.93a.5.5,0,0,0-.12-.37.45.45,0,0,0-.33-.12.53.53,0,0,0-.39.14.54.54,0,0,0-.14.41v.87h-.31V18.8h.31v.91a.65.65,0,0,1,.24-.19,1,1,0,0,1,.35-.06A.68.68,0,0,1,31.49,19.64Z"/><path class="cls-1" d="M33.36,21A1.13,1.13,0,0,1,33,19.46a1.1,1.1,0,0,1,.42-.41,1.33,1.33,0,0,1,.6-.14,1.19,1.19,0,0,1,.47.09.94.94,0,0,1,.37.25l-.21.2a.82.82,0,0,0-.62-.26,1,1,0,0,0-.45.11.84.84,0,0,0-.31.31.9.9,0,0,0,0,.86.84.84,0,0,0,.31.31,1,1,0,0,0,.45.11.81.81,0,0,0,.62-.27l.21.2a1,1,0,0,1-.37.26A1.3,1.3,0,0,1,33.36,21Z"/><path class="cls-1" d="M35.13,18.8h.31v2.35h-.31Z"/><path class="cls-1" d="M35.94,19.09a.18.18,0,0,1-.06-.14.2.2,0,0,1,.06-.14.2.2,0,0,1,.15-.06.2.2,0,0,1,.14.06.18.18,0,0,1,.06.14.21.21,0,0,1-.2.2A.2.2,0,0,1,35.94,19.09Zm0,.38h.31v1.68h-.31Z"/><path class="cls-1" d="M38.14,19.64a.73.73,0,0,1,.18.54v1H38v-.93a.5.5,0,0,0-.12-.37.43.43,0,0,0-.33-.12.53.53,0,0,0-.39.14.54.54,0,0,0-.14.41v.87h-.31V19.47H37v.25a.82.82,0,0,1,.25-.2,1,1,0,0,1,.36-.06A.72.72,0,0,1,38.14,19.64Z"/><path class="cls-1" d="M38.81,19.09a.18.18,0,0,1-.06-.14.2.2,0,0,1,.06-.14.2.2,0,0,1,.15-.06.21.21,0,0,1,.2.2.2.2,0,0,1-.06.14.18.18,0,0,1-.14.06A.2.2,0,0,1,38.81,19.09Zm0,.38h.31v1.68H38.8Z"/><path class="cls-1" d="M39.88,21.05a.77.77,0,0,1-.32-.3.93.93,0,0,1-.11-.44.9.9,0,0,1,.11-.44.87.87,0,0,1,.32-.31.93.93,0,0,1,.45-.1.88.88,0,0,1,.41.09.7.7,0,0,1,.28.26l-.23.15a.57.57,0,0,0-.2-.18.55.55,0,0,0-.26-.06.65.65,0,0,0-.29.07.53.53,0,0,0-.21.21.72.72,0,0,0,0,.62.53.53,0,0,0,.21.21.54.54,0,0,0,.29.07.55.55,0,0,0,.26-.06.57.57,0,0,0,.2-.18l.23.14a.66.66,0,0,1-.28.27.89.89,0,0,1-.41.1A.84.84,0,0,1,39.88,21.05Z"/><path class="cls-1" d="M61.17,4A5.88,5.88,0,0,1,62.3,7.22c0,1.82-.39,2.47-.22,3.17a5.31,5.31,0,0,0,1.25,2c.36.33,1.34.86.66,1.48s-1.38.93-1.14,1.33.34.91-.15,1.23-.38.55-.15.72.3.64-.28.83-.38.89-.33,1.33-.58,1.61-3.16,1c0,0-2.5-.68-2.93.38a9,9,0,0,0-.78,2.4,2,2,0,0,1-.44,1.05,2,2,0,0,1-.77-1.82V15.92s4.81.22,6-3.73a6.7,6.7,0,0,0,.55-3c0-1.81,0-3.47,0-3.47A2.58,2.58,0,0,1,61.17,4Z"/><path class="cls-1" d="M44.12,4.42a1.57,1.57,0,0,1,1,1.4c0,1,0,4.11.13,4.66s.44,5.17,6.4,5.4v6.31a2.49,2.49,0,0,1-1.85,2.63A1.93,1.93,0,0,0,50,23.06c-.38-.91-1.61-.84-2.15-.78a5.46,5.46,0,0,1-2.26-.13,1.55,1.55,0,0,1-1-1.9c.26-.77.26-1-.08-1.36a.74.74,0,0,1-.23-.85c.08-.15-.11-.32-.38-.42s-.85-.45-.66-.85.52-.83,0-1.1S41.89,15.54,42,15a12,12,0,0,1,.91-2.48,5.06,5.06,0,0,0,.53-1.84c0-.53-.24-.91-.17-1.48a21,21,0,0,1,.32-2.73C43.71,6,44.12,4.42,44.12,4.42Z"/><path class="cls-1" d="M50,3.87H45.41c1.74.72,2,3.71,2,3.71l.19,3.6a3.83,3.83,0,0,0,4,3.58V6.66C51.68,3.91,50,3.87,50,3.87Zm1.08,3.62a1.8,1.8,0,0,1,.16.72c0,.83-.61.92-.61.92a3.23,3.23,0,0,1,.08-2.06,3.06,3.06,0,0,0-.31,2,.76.76,0,0,1-.56-.94,2.84,2.84,0,0,1,1-1.43A2.28,2.28,0,0,0,51.07,7.49ZM49.24,5.65A3,3,0,0,1,50.6,4.42a2.53,2.53,0,0,0,.06.83,1.82,1.82,0,0,1,0,.77c-.18.86-.83.81-.83.81a3.39,3.39,0,0,1,.55-2.1,3.2,3.2,0,0,0-.78,2A.8.8,0,0,1,49.24,5.65ZM49.1,6.83a.68.68,0,0,1-.13,1,2.83,2.83,0,0,0-1-1.59,2.93,2.93,0,0,1,.78,1.7s-.55.14-.83-.56a1.82,1.82,0,0,1-.12-.65A1.9,1.9,0,0,0,47.76,6,2.54,2.54,0,0,1,49.1,6.83ZM47.38,5.44A1.69,1.69,0,0,1,47.13,5a1.84,1.84,0,0,0-.24-.54,2.15,2.15,0,0,1,1.25.31.56.56,0,0,1,.15.8,2.25,2.25,0,0,0-1.16-1,2.41,2.41,0,0,1,1,1.12A.6.6,0,0,1,47.38,5.44Zm.38,4.11a3.44,3.44,0,0,1,1.61-1.39,2.56,2.56,0,0,0,.05,1,2.66,2.66,0,0,1,0,.89c-.24,1-1,.92-1,.92a3.93,3.93,0,0,1,.69-2.42,3.7,3.7,0,0,0-1,2.31A.93.93,0,0,1,47.76,9.55Zm1.55,3.51a2.35,2.35,0,0,0-.83-1.35,2.48,2.48,0,0,1,.67,1.44s-.47.12-.71-.48a1.45,1.45,0,0,1-.1-.55,1.76,1.76,0,0,0-.06-.61,2.13,2.13,0,0,1,1.14.71A.59.59,0,0,1,49.31,13.06Zm1.6.26a1,1,0,0,1-.07.38c-.16.41-.48.32-.48.32a1.73,1.73,0,0,1,.45-1,1.63,1.63,0,0,0-.56.91.39.39,0,0,1-.07-.56,1.5,1.5,0,0,1,.77-.49A1,1,0,0,0,50.91,13.32Zm-.36-.92a4.1,4.1,0,0,1,.15-2.61,3.83,3.83,0,0,0-.44,2.56,1,1,0,0,1-.68-1.21,3.61,3.61,0,0,1,1.31-1.78,2.93,2.93,0,0,0,.27,1,2.39,2.39,0,0,1,.19.91C51.34,12.3,50.55,12.4,50.55,12.4Z"/><path class="cls-1" d="M55.47,3.87s-1.69,0-1.61,2.79v8.1a3.83,3.83,0,0,0,4-3.58l.19-3.6s.23-3,2-3.71ZM57.53,6a2.1,2.1,0,0,0-.08.72,1.81,1.81,0,0,1-.11.65c-.29.7-.84.56-.84.56a3,3,0,0,1,.79-1.7,2.76,2.76,0,0,0-1,1.59.68.68,0,0,1-.13-1A2.54,2.54,0,0,1,57.53,6Zm-2.91-.74a2.28,2.28,0,0,0,.06-.83A2.91,2.91,0,0,1,56,5.65a.79.79,0,0,1-.35,1.09,3.2,3.2,0,0,0-.78-2,3.39,3.39,0,0,1,.55,2.1s-.66,0-.84-.81A2.21,2.21,0,0,1,54.62,5.25Zm-.4,2.24a2,2,0,0,0,.22-.76,2.84,2.84,0,0,1,1,1.43.75.75,0,0,1-.55.94,3.06,3.06,0,0,0-.31-2,3.23,3.23,0,0,1,.08,2.06s-.62-.09-.61-.92A1.8,1.8,0,0,1,54.22,7.49ZM55,14a1.57,1.57,0,0,0-.56-.91,1.71,1.71,0,0,1,.46,1s-.32.09-.48-.32a1,1,0,0,1-.07-.38,1.24,1.24,0,0,0,0-.41,1.5,1.5,0,0,1,.77.49A.39.39,0,0,1,55,14Zm0-1.61a3.87,3.87,0,0,0-.45-2.56,4.1,4.1,0,0,1,.15,2.61s-.78-.1-.79-1.16a2.39,2.39,0,0,1,.19-.91,2.93,2.93,0,0,0,.27-1,3.61,3.61,0,0,1,1.31,1.78A1,1,0,0,1,55,12.35Zm1.91-.23a1.28,1.28,0,0,1-.09.55c-.25.6-.71.48-.71.48a2.48,2.48,0,0,1,.67-1.44A2.35,2.35,0,0,0,56,13.06a.58.58,0,0,1-.11-.84A2.13,2.13,0,0,1,57,11.51,1.73,1.73,0,0,0,56.94,12.12Zm.21-1.29a3.74,3.74,0,0,0-1-2.31,4,4,0,0,1,.7,2.42s-.76.07-1-.92a2.22,2.22,0,0,1,0-.89,2.78,2.78,0,0,0,.05-1,3.44,3.44,0,0,1,1.61,1.39A.93.93,0,0,1,57.15,10.83Zm1-5.87a1.49,1.49,0,0,1-.26.48.6.6,0,0,1-.79.22,2.41,2.41,0,0,1,1-1.12,2.25,2.25,0,0,0-1.15,1,.57.57,0,0,1,.14-.8,2.16,2.16,0,0,1,1.25-.31A1.62,1.62,0,0,0,58.16,5Z"/></svg>